<svg version="1.1" xmlns="http://www.w3.org/2000/svg" xmlns:xlink="http://www.w3.org/1999/xlink" width="32px" height="32px" viewBox="0,0,256,256"><g fill="#ffffff" fill-rule="nonzero" stroke="none" stroke-width="1" stroke-linecap="butt" stroke-linejoin="miter" stroke-miterlimit="10" stroke-dasharray="" stroke-dashoffset="0" font-family="none" font-weight="none" font-size="none" text-anchor="none" style="mix-blend-mode: normal"><g transform="scale(8,8)"><path d="M5,7c-0.55078,0 -1,0.44922 -1,1c0,0.55078 0.44922,1 1,1h2.21875l2.625,10.5c0.22266,0.89063 1.01953,1.5 1.9375,1.5h11.46875c0.90234,0 1.66797,-0.59766 1.90625,-1.46875l2.59375,-9.53125h-16.75l0.5,2h13.65625l-1.90625,7h-11.46875l-2.625,-10.5c-0.22266,-0.89062 -1.01953,-1.5 -1.9375,-1.5zM22,21c-1.64453,0 -3,1.35547 -3,3c0,1.64453 1.35547,3 3,3c1.64453,0 3,-1.35547 3,-3c0,-1.64453 -1.35547,-3 -3,-3zM13,21c-1.64453,0 -3,1.35547 -3,3c0,1.64453 1.35547,3 3,3c1.64453,0 3,-1.35547 3,-3c0,-1.64453 -1.35547,-3 -3,-3zM13,23c0.5625,0 1,0.4375 1,1c0,0.5625 -0.4375,1 -1,1c-0.5625,0 -1,-0.4375 -1,-1c0,-0.5625 0.4375,-1 1,-1zM22,23c0.5625,0 1,0.4375 1,1c0,0.5625 -0.4375,1 -1,1c-0.5625,0 -1,-0.4375 -1,-1c0,-0.5625 0.4375,-1 1,-1z"></path></g></g></svg>